<svg width="70" height="470" viewBox="0 0 70 470" fill="none" xmlns="http://www.w3.org/2000/svg">
<circle cx="5" cy="5" r="5" transform="matrix(-1 0 0 1 70 120)" fill="#41EAD4"/>
<circle cx="5" cy="5" r="5" transform="matrix(-1 0 0 1 50 120)" fill="#41EAD4"/>
<circle cx="5" cy="5" r="5" transform="matrix(-1 0 0 1 30 120)" fill="#41EAD4"/>
<circle cx="5" cy="5" r="5" transform="matrix(-1 0 0 1 10 120)" fill="#41EAD4"/>
<circle cx="5" cy="5" r="5" transform="matrix(-1 0 0 1 70 140)" fill="#41EAD4"/>
<circle cx="5" cy="5" r="5" transform="matrix(-1 0 0 1 50 140)" fill="#41EAD4"/>
<circle cx="5" cy="5" r="5" transform="matrix(-1 0 0 1 30 140)" fill="#41EAD4"/>
<circle cx="5" cy="5" r="5" transform="matrix(-1 0 0 1 10 140)" fill="#41EAD4"/>
<circle cx="5" cy="5" r="5" transform="matrix(-1 0 0 1 70 160)" fill="#41EAD4"/>
<circle cx="5" cy="5" r="5" transform="matrix(-1 0 0 1 50 160)" fill="#41EAD4"/>
<circle cx="5" cy="5" r="5" transform="matrix(-1 0 0 1 30 160)" fill="#41EAD4"/>
<circle cx="5" cy="5" r="5" transform="matrix(-1 0 0 1 10 160)" fill="#41EAD4"/>
<circle cx="5" cy="5" r="5" transform="matrix(-1 0 0 1 70 180)" fill="#41EAD4"/>
<circle cx="5" cy="5" r="5" transform="matrix(-1 0 0 1 50 180)" fill="#41EAD4"/>
<circle cx="5" cy="5" r="5" transform="matrix(-1 0 0 1 30 180)" fill="#41EAD4"/>
<circle cx="5" cy="5" r="5" transform="matrix(-1 0 0 1 10 180)" fill="#41EAD4"/>
<circle cx="5" cy="5" r="5" transform="matrix(-1 0 0 1 70 200)" fill="#41EAD4"/>
<circle cx="5" cy="5" r="5" transform="matrix(-1 0 0 1 50 200)" fill="#41EAD4"/>
<circle cx="5" cy="5" r="5" transform="matrix(-1 0 0 1 30 200)" fill="#41EAD4"/>
<circle cx="5" cy="5" r="5" transform="matrix(-1 0 0 1 10 200)" fill="#41EAD4"/>
<circle cx="5" cy="5" r="5" transform="matrix(-1 0 0 1 70 220)" fill="#41EAD4"/>
<circle cx="5" cy="5" r="5" transform="matrix(-1 0 0 1 50 220)" fill="#41EAD4"/>
<circle cx="5" cy="5" r="5" transform="matrix(-1 0 0 1 30 220)" fill="#41EAD4"/>
<circle cx="5" cy="5" r="5" transform="matrix(-1 0 0 1 10 220)" fill="#41EAD4"/>
<circle cx="5" cy="5" r="5" transform="matrix(-1 0 0 1 70 0)" fill="#41EAD4"/>
<circle cx="5" cy="5" r="5" transform="matrix(-1 0 0 1 50 0)" fill="#41EAD4"/>
<circle cx="5" cy="5" r="5" transform="matrix(-1 0 0 1 30 0)" fill="#41EAD4"/>
<circle cx="5" cy="5" r="5" transform="matrix(-1 0 0 1 10 0)" fill="#41EAD4"/>
<circle cx="5" cy="5" r="5" transform="matrix(-1 0 0 1 70 20)" fill="#41EAD4"/>
<circle cx="5" cy="5" r="5" transform="matrix(-1 0 0 1 50 20)" fill="#41EAD4"/>
<circle cx="5" cy="5" r="5" transform="matrix(-1 0 0 1 30 20)" fill="#41EAD4"/>
<circle cx="5" cy="5" r="5" transform="matrix(-1 0 0 1 10 20)" fill="#41EAD4"/>
<circle cx="5" cy="5" r="5" transform="matrix(-1 0 0 1 70 40)" fill="#41EAD4"/>
<circle cx="5" cy="5" r="5" transform="matrix(-1 0 0 1 50 40)" fill="#41EAD4"/>
<circle cx="5" cy="5" r="5" transform="matrix(-1 0 0 1 30 40)" fill="#41EAD4"/>
<circle cx="5" cy="5" r="5" transform="matrix(-1 0 0 1 10 40)" fill="#41EAD4"/>
<circle cx="5" cy="5" r="5" transform="matrix(-1 0 0 1 70 60)" fill="#41EAD4"/>
<circle cx="5" cy="5" r="5" transform="matrix(-1 0 0 1 50 60)" fill="#41EAD4"/>
<circle cx="5" cy="5" r="5" transform="matrix(-1 0 0 1 30 60)" fill="#41EAD4"/>
<circle cx="5" cy="5" r="5" transform="matrix(-1 0 0 1 10 60)" fill="#41EAD4"/>
<circle cx="5" cy="5" r="5" transform="matrix(-1 0 0 1 70 80)" fill="#41EAD4"/>
<circle cx="5" cy="5" r="5" transform="matrix(-1 0 0 1 50 80)" fill="#41EAD4"/>
<circle cx="5" cy="5" r="5" transform="matrix(-1 0 0 1 30 80)" fill="#41EAD4"/>
<circle cx="5" cy="5" r="5" transform="matrix(-1 0 0 1 10 80)" fill="#41EAD4"/>
<circle cx="5" cy="5" r="5" transform="matrix(-1 0 0 1 70 100)" fill="#41EAD4"/>
<circle cx="5" cy="5" r="5" transform="matrix(-1 0 0 1 50 100)" fill="#41EAD4"/>
<circle cx="5" cy="5" r="5" transform="matrix(-1 0 0 1 30 100)" fill="#41EAD4"/>
<circle cx="5" cy="5" r="5" transform="matrix(-1 0 0 1 10 100)" fill="#41EAD4"/>
<circle cx="5" cy="5" r="5" transform="matrix(-1 0 0 1 70 240)" fill="#41EAD4"/>
<circle cx="5" cy="5" r="5" transform="matrix(-1 0 0 1 50 240)" fill="#41EAD4"/>
<circle cx="5" cy="5" r="5" transform="matrix(-1 0 0 1 30 240)" fill="#41EAD4"/>
<circle cx="5" cy="5" r="5" transform="matrix(-1 0 0 1 10 240)" fill="#41EAD4"/>
<circle cx="5" cy="5" r="5" transform="matrix(-1 0 0 1 70 260)" fill="#41EAD4"/>
<circle cx="5" cy="5" r="5" transform="matrix(-1 0 0 1 50 260)" fill="#41EAD4"/>
<circle cx="5" cy="5" r="5" transform="matrix(-1 0 0 1 30 260)" fill="#41EAD4"/>
<circle cx="5" cy="5" r="5" transform="matrix(-1 0 0 1 10 260)" fill="#41EAD4"/>
<circle cx="5" cy="5" r="5" transform="matrix(-1 0 0 1 70 280)" fill="#41EAD4"/>
<circle cx="5" cy="5" r="5" transform="matrix(-1 0 0 1 50 280)" fill="#41EAD4"/>
<circle cx="5" cy="5" r="5" transform="matrix(-1 0 0 1 30 280)" fill="#41EAD4"/>
<circle cx="5" cy="5" r="5" transform="matrix(-1 0 0 1 10 280)" fill="#41EAD4"/>
<circle cx="5" cy="5" r="5" transform="matrix(-1 0 0 1 70 300)" fill="#41EAD4"/>
<circle cx="5" cy="5" r="5" transform="matrix(-1 0 0 1 50 300)" fill="#41EAD4"/>
<circle cx="5" cy="5" r="5" transform="matrix(-1 0 0 1 30 300)" fill="#41EAD4"/>
<circle cx="5" cy="5" r="5" transform="matrix(-1 0 0 1 10 300)" fill="#41EAD4"/>
<circle cx="5" cy="5" r="5" transform="matrix(-1 0 0 1 70 320)" fill="#41EAD4"/>
<circle cx="5" cy="5" r="5" transform="matrix(-1 0 0 1 50 320)" fill="#41EAD4"/>
<circle cx="5" cy="5" r="5" transform="matrix(-1 0 0 1 30 320)" fill="#41EAD4"/>
<circle cx="5" cy="5" r="5" transform="matrix(-1 0 0 1 10 320)" fill="#41EAD4"/>
<circle cx="5" cy="5" r="5" transform="matrix(-1 0 0 1 70 340)" fill="#41EAD4"/>
<circle cx="5" cy="5" r="5" transform="matrix(-1 0 0 1 50 340)" fill="#41EAD4"/>
<circle cx="5" cy="5" r="5" transform="matrix(-1 0 0 1 30 340)" fill="#41EAD4"/>
<circle cx="5" cy="5" r="5" transform="matrix(-1 0 0 1 10 340)" fill="#41EAD4"/>
<circle cx="5" cy="5" r="5" transform="matrix(-1 0 0 1 70 360)" fill="#41EAD4"/>
<circle cx="5" cy="5" r="5" transform="matrix(-1 0 0 1 50 360)" fill="#41EAD4"/>
<circle cx="5" cy="5" r="5" transform="matrix(-1 0 0 1 30 360)" fill="#41EAD4"/>
<circle cx="5" cy="5" r="5" transform="matrix(-1 0 0 1 10 360)" fill="#41EAD4"/>
<circle cx="5" cy="5" r="5" transform="matrix(-1 0 0 1 70 380)" fill="#41EAD4"/>
<circle cx="5" cy="5" r="5" transform="matrix(-1 0 0 1 50 380)" fill="#41EAD4"/>
<circle cx="5" cy="5" r="5" transform="matrix(-1 0 0 1 30 380)" fill="#41EAD4"/>
<circle cx="5" cy="5" r="5" transform="matrix(-1 0 0 1 10 380)" fill="#41EAD4"/>
<circle cx="5" cy="5" r="5" transform="matrix(-1 0 0 1 70 400)" fill="#41EAD4"/>
<circle cx="5" cy="5" r="5" transform="matrix(-1 0 0 1 50 400)" fill="#41EAD4"/>
<circle cx="5" cy="5" r="5" transform="matrix(-1 0 0 1 30 400)" fill="#41EAD4"/>
<circle cx="5" cy="5" r="5" transform="matrix(-1 0 0 1 10 400)" fill="#41EAD4"/>
<circle cx="5" cy="5" r="5" transform="matrix(-1 0 0 1 70 420)" fill="#41EAD4"/>
<circle cx="5" cy="5" r="5" transform="matrix(-1 0 0 1 50 420)" fill="#41EAD4"/>
<circle cx="5" cy="5" r="5" transform="matrix(-1 0 0 1 30 420)" fill="#41EAD4"/>
<circle cx="5" cy="5" r="5" transform="matrix(-1 0 0 1 10 420)" fill="#41EAD4"/>
<circle cx="5" cy="5" r="5" transform="matrix(-1 0 0 1 70 440)" fill="#41EAD4"/>
<circle cx="5" cy="5" r="5" transform="matrix(-1 0 0 1 50 440)" fill="#41EAD4"/>
<circle cx="5" cy="5" r="5" transform="matrix(-1 0 0 1 30 440)" fill="#41EAD4"/>
<circle cx="5" cy="5" r="5" transform="matrix(-1 0 0 1 10 440)" fill="#41EAD4"/>
<circle cx="5" cy="5" r="5" transform="matrix(-1 0 0 1 70 460)" fill="#41EAD4"/>
<circle cx="5" cy="5" r="5" transform="matrix(-1 0 0 1 50 460)" fill="#41EAD4"/>
<circle cx="5" cy="5" r="5" transform="matrix(-1 0 0 1 30 460)" fill="#41EAD4"/>
<circle cx="5" cy="5" r="5" transform="matrix(-1 0 0 1 10 460)" fill="#41EAD4"/>
</svg>
