<svg xmlns="http://www.w3.org/2000/svg" width="30" height="24" viewBox="0 0 30 24" fill="none">
<g clip-path="url(#clip0_21_15)">
<path d="M21.3524 2.01508H9.26492C5.92706 2.01508 3.22119 4.23115 3.22119 6.96482V16.8643C3.22119 19.598 5.92706 21.8141 9.26492 21.8141H21.3524C24.6902 21.8141 27.3961 19.598 27.3961 16.8643V6.96482C27.3961 4.23115 24.6902 2.01508 21.3524 2.01508Z" stroke="#41EAD4" stroke-width="2" stroke-linecap="round" stroke-linejoin="round"/>
<path d="M20.1437 11.2909C20.2928 12.1148 20.121 12.9562 19.6526 13.6955C19.1842 14.4348 18.4431 15.0343 17.5347 15.4088C16.6264 15.7832 15.5969 15.9136 14.5929 15.7812C13.5888 15.6489 12.6612 15.2607 11.9421 14.6717C11.223 14.0828 10.749 13.3231 10.5874 12.5008C10.4258 11.6785 10.585 10.8354 11.0422 10.0914C11.4994 9.34748 12.2314 8.74053 13.1341 8.35692C14.0368 7.97332 15.0642 7.83259 16.0702 7.95476C17.0963 8.07938 18.0463 8.47098 18.7798 9.07173C19.5134 9.67247 19.9915 10.4505 20.1437 11.2909Z" stroke="#41EAD4" stroke-width="2" stroke-linecap="round" stroke-linejoin="round"/>
</g>
<defs>
<clipPath id="clip0_21_15">
<rect width="29.0099" height="23.7588" fill="white" transform="translate(0.803711 0.0351562)"/>
</clipPath>
</defs>
</svg>