<svg xmlns="http://www.w3.org/2000/svg" width="30" height="25" viewBox="0 0 30 25" fill="none">
<g clip-path="url(#clip0_21_21)">
<path d="M28.6049 3.44727C27.4473 4.11596 26.1657 4.6274 24.8094 4.96189C24.0814 4.27637 23.1139 3.79048 22.0378 3.56995C20.9616 3.34943 19.8288 3.4049 18.7924 3.72887C17.756 4.05283 16.8661 4.62967 16.243 5.38135C15.6199 6.13304 15.2938 7.0233 15.3087 7.93174V8.92169C13.1844 8.9668 11.0796 8.58097 9.18153 7.79854C7.28348 7.01612 5.65116 5.8614 4.42994 4.43722C4.42994 4.43722 -0.40504 13.3468 10.4737 17.3066C7.98429 18.6905 5.01879 19.3844 2.01245 19.2865C12.8912 24.2362 26.1874 19.2865 26.1874 7.90205C26.1862 7.6263 26.1539 7.35123 26.0907 7.08039C27.3243 6.084 28.1949 4.82599 28.6049 3.44727V3.44727Z" stroke="#41EAD4" stroke-width="2" stroke-linecap="round" stroke-linejoin="round"/>
</g>
<defs>
<clipPath id="clip0_21_21">
<rect width="29.0099" height="23.7588" fill="white" transform="translate(0.803711 0.477417)"/>
</clipPath>
</defs>
</svg>